<?xml version="1.0" encoding="UTF-8" standalone="no"?>
<svg width="501px" height="187px" viewBox="0 0 501 187" version="1.1" xmlns="http://www.w3.org/2000/svg" xmlns:xlink="http://www.w3.org/1999/xlink">
    <!-- Generator: Sketch 3.8.3 (29802) - http://www.bohemiancoding.com/sketch -->
    <title>Cycles</title>
    <desc>Created with Sketch.</desc>
    <defs></defs>
    <g id="Page-1" stroke="none" stroke-width="1" fill="none" fill-rule="evenodd">
        <path d="M0.148,74.264 C0.148,112.288 29.054,142.746 67.272,142.746 C86.284,142.746 102.774,135.762 114.608,124.316 C119.652,119.66 118.294,109.766 112.862,104.916 C107.43,100.26 99.476,100.454 94.626,104.722 C87.642,111.318 78.136,115.198 67.272,115.198 C45.156,115.198 28.472,96.962 28.472,74.264 C28.472,51.566 45.156,33.33 67.272,33.33 C78.136,33.33 87.642,37.21 94.626,43.806 C99.476,48.074 107.43,48.268 112.862,43.612 C118.294,38.762 119.652,28.868 114.608,24.212 C102.774,12.766 86.284,5.782 67.272,5.782 C29.054,5.782 0.148,36.24 0.148,74.264 L0.148,74.264 Z M201.22,66.116 C203.742,59.132 199.862,51.76 193.266,50.014 C184.73,47.88 178.522,51.76 176.388,57.774 L158.928,102.006 L141.856,57.774 C139.722,51.76 133.514,47.88 124.978,50.014 C118.382,51.76 114.502,59.132 117.024,66.116 L145.154,131.688 L130.022,169.324 C127.306,176.308 131.186,184.068 137.782,185.62 C146.124,187.56 152.332,184.068 154.854,178.054 L201.22,66.116 Z M228.856,95.992 L228.856,95.41 C228.856,82.8 239.332,74.846 250.972,74.846 C255.822,74.846 260.478,76.204 264.358,78.338 C269.208,81.054 277.162,82.218 282.012,77.368 C287.444,71.936 286.668,62.042 280.266,57.58 C272.118,51.76 261.836,48.656 250.972,48.656 C224.976,48.656 201.308,66.892 201.308,95.41 L201.308,95.992 C201.308,124.51 224.976,142.746 250.972,142.746 C261.836,142.746 272.118,139.642 280.266,133.822 C286.668,129.36 287.444,119.466 282.012,114.034 C277.162,109.184 269.208,110.348 264.358,113.064 C260.478,115.198 255.822,116.556 250.972,116.556 C239.332,116.556 228.856,108.602 228.856,95.992 L228.856,95.992 Z M320.706,12.184 C320.706,5.394 314.498,0.156 307.126,0.156 C299.948,0.156 293.74,5.588 293.546,12.184 L293.546,129.942 C293.74,136.538 299.948,141.97 307.126,141.97 C314.498,141.97 320.706,136.732 320.706,129.942 L320.706,12.184 Z M356.878,87.65 C359.206,76.204 366.966,71.16 377.054,71.16 C387.142,71.16 394.708,76.592 396.066,87.65 L356.878,87.65 Z M394.514,115.198 C388.888,119.078 384.232,119.466 378.8,119.466 C369.294,119.466 357.848,115.004 356.49,104.528 L414.884,104.528 C419.152,104.528 423.226,101.036 423.226,96.186 C423.226,67.668 402.662,48.656 376.86,48.656 C350.864,48.656 329.524,66.892 329.524,95.41 C329.524,123.928 350.864,142.746 376.86,142.746 C387.53,142.746 398.976,140.612 408.094,134.598 C414.69,130.718 416.63,122.376 411.586,116.556 C407.706,112.094 400.722,110.93 394.514,115.198 Z M425.448,123.54 C430.104,136.926 447.176,142.94 461.726,142.94 C480.738,142.94 500.914,133.822 500.914,114.616 C500.914,108.796 498.198,94.634 476.276,87.456 L462.502,82.8 C457.07,81.054 454.742,79.308 454.742,76.398 C454.742,72.906 458.816,70.966 464.636,70.966 C468.128,70.966 471.62,72.13 475.5,75.04 C481.126,79.308 486.752,80.666 492.766,77.174 C496.84,74.846 498.392,69.22 495.094,63.4 C488.886,52.536 475.5,48.462 462.502,48.462 C443.49,48.462 427.388,60.878 427.388,74.264 C427.388,82.606 427.194,95.41 454.354,104.528 L464.636,108.214 C471.232,110.348 473.56,111.706 473.56,115.586 C473.56,120.242 467.934,121.212 461.92,121.212 C455.518,121.212 449.698,118.496 444.848,113.258 C441.938,109.766 436.312,107.244 430.298,109.96 C425.836,111.9 423.508,117.914 425.448,123.54 L425.448,123.54 Z" id="Cycles" fill="#181F65"></path>
    </g>
</svg>